<svg xmlns="http://www.w3.org/2000/svg" xmlns:xlink="http://www.w3.org/1999/xlink" width="20" height="28.329" viewBox="0 0 20 28.329"><defs><clipPath id="a"><path d="M22.514,16.45V30.614h-20V2.286h20V5.218" fill="none" stroke="#feb41c" stroke-linecap="round" stroke-miterlimit="10" stroke-width="1.143"/></clipPath></defs><g transform="translate(-5.514 -2.286)"><g transform="translate(3)" clip-path="url(#a)"><g transform="translate(2.99 6.926)"><path d="M20.584,12.489V9.632H18.537a7.619,7.619,0,0,0-1.181-2.857L18.8,5.346,16.775,3.318,15.346,4.756a7.619,7.619,0,0,0-2.857-1.181V1.537H9.632V3.584A7.619,7.619,0,0,0,6.775,4.765L5.346,3.318,3.318,5.346,4.756,6.775A7.619,7.619,0,0,0,3.575,9.632H1.537v2.857H3.584a7.619,7.619,0,0,0,1.181,2.857L3.318,16.775,5.346,18.8l1.429-1.438a7.619,7.619,0,0,0,2.857,1.181v2.038h2.857V18.537a7.619,7.619,0,0,0,2.857-1.181L16.775,18.8,18.8,16.775l-1.438-1.429a7.619,7.619,0,0,0,1.181-2.857Z" transform="translate(-1.537 -1.537)" fill="none" stroke="#feb41c" stroke-linecap="round" stroke-miterlimit="10" stroke-width="0.768"/><circle cx="4.762" cy="4.762" r="4.762" transform="translate(4.762 4.762)" fill="none" stroke="#feb41c" stroke-linecap="round" stroke-miterlimit="10" stroke-width="0.768"/></g></g></g></svg>